<svg width="194" height="69" viewBox="0 0 194 69" fill="none" xmlns="http://www.w3.org/2000/svg">
<path d="M102.035 25.4631H95.6749L86.3194 34.8077V16.5359H81.2729V48.9753H86.3194V40.5582L89.4072 37.6366L96.5275 48.9753H102.841L93.048 34.0657L102.035 25.4631ZM107.035 32.6976H111.943C112.358 29.6369 113.81 28.5007 117.151 28.5007C120.423 28.5007 121.967 29.6369 121.967 32.0484C121.967 32.9063 121.875 33.4628 121.644 33.7411C121.138 34.4135 120.101 34.6454 116.506 35.1091C111.828 35.712 106.021 36.2917 106.021 42.5292C106.021 46.8652 109.063 49.555 113.925 49.555C117.013 49.555 120.008 48.7898 122.128 46.7261C122.497 48.7666 123.949 49.555 125.931 49.555C126.921 49.555 127.659 49.4622 129.295 49.0449V45.4044C128.65 45.4972 128.488 45.4972 128.12 45.4972C127.175 45.4972 126.898 45.1262 126.898 43.7581V31.8165C126.898 26.7616 122.82 24.6979 117.289 24.6979C111.575 24.7443 107.634 26.9239 107.035 32.6976ZM121.921 37.1728V39.9553C121.921 41.3698 121.967 42.9234 120.884 44.0132C119.709 45.1957 117.704 45.8914 115.584 45.8914C112.911 45.8914 111.367 44.616 111.367 42.39C111.367 39.2829 114.086 38.8423 116.506 38.4713C118.326 38.1699 120.239 38.1235 121.921 37.1728ZM152.684 32.3035C152.684 26.9703 148.236 24.7907 142.89 24.7907C136.899 24.7907 133.304 27.4341 133.304 31.9093C133.304 36.9642 137.521 37.6598 142.89 38.9815C145.84 39.7003 148.467 40.1177 148.467 42.4828C148.467 44.5697 146.462 45.8914 143.42 45.8914C140.194 45.8914 138.028 44.5697 137.752 41.4625H132.797C133.074 46.842 136.692 49.6709 143.328 49.6709C149.596 49.6709 153.536 46.6565 153.536 41.9263C153.536 36.7323 148.536 35.6888 144.457 34.7381C140.701 33.8802 138.466 33.6947 138.466 31.3296C138.466 29.5905 140.01 28.5934 142.637 28.5934C145.402 28.5934 147.361 29.4514 147.729 32.3266L152.684 32.3035ZM164.274 25.4631H159.412V57.6706H164.551V45.8682C166.417 48.4652 168.998 49.555 172.178 49.555C178.492 49.555 182.57 44.732 182.57 37.2888C182.57 29.6833 178.4 24.7675 171.902 24.7675C168.86 24.7675 165.91 25.9501 164.274 28.5934V25.4631ZM170.842 28.9644C174.828 28.9644 177.34 32.2107 177.34 37.312C177.34 42.3205 174.897 45.4276 170.934 45.4276C166.809 45.4276 164.343 42.3205 164.343 37.2192C164.366 32.0716 166.763 28.9644 170.842 28.9644ZM194 16.3968H188.838V21.4981H194V16.3968ZM194 25.4631H188.838V48.9753H194V25.4631Z" fill="#1C1B17"/>
<path d="M14.7476 62.4702C18.3193 47.5606 14.0793 47.0505 14.0793 39.816C14.0793 37.4045 15.9689 31.6308 16.2454 28.8251C16.8906 22.379 15.3006 24.0948 19.9784 19.3182L20.2549 12.6866C22.6053 10.4142 23.7805 8.37367 26.6609 9.09248C28.4122 14.3329 25.094 12.6866 24.7714 18.8081C26.73 21.4283 28.0435 21.6833 29.5182 24.976C31.3847 29.1497 30.0482 29.1033 33.5738 32.6047C38.7585 33.2075 41.8924 33.2307 45.6023 29.4743C45.9941 25.4629 43.6898 25.8107 46.0401 22.1239C47.6532 19.5964 49.2431 18.2284 52.2618 19.2486C53.2526 23.1905 48.8053 24.0021 50.1879 28.3845C56.1561 28.9874 57.5387 20.7094 62.1012 20.2921C62.1012 29.1265 52.93 30.2859 52.7227 37.474C52.5844 41.9724 56.5478 54.3546 60.5573 56.998C64.0829 51.5489 67.885 45.6129 68.3228 39.0276C71.3876 -5.90987 12.305 -14.0951 1.08303 25.2542C0.506949 27.2715 0.161302 29.312 0 31.3525V36.5697C0.990854 49.5084 8.91769 60.8703 14.7476 62.4702Z" fill="#EF4635"/>
<path d="M32.03 68.4992C47.9989 70.4006 46.3167 65.4385 43.1598 47.1435C41.9155 39.9321 40.4638 36.1294 31.9609 36.8018C26.6609 43.132 29.3339 55.4678 29.5183 60.8705C29.6565 65.137 28.9422 65.4153 32.03 68.4992ZM50.3953 64.0936C53.0684 63.7689 53.5292 63.2125 55.6953 61.4734C56.0409 57.7866 53.5292 51.8505 49.6119 50.668C47.7684 54.2389 48.2984 60.5923 50.3953 64.0936ZM24.0801 67.1543C24.0801 62.656 24.6331 53.3577 22.3288 50.1579C19.2641 51.0622 20.2089 53.7056 20.1858 59.3401C20.1628 63.4675 19.4024 66.737 24.0801 67.1543Z" fill="#EF4635"/>
</svg>
