<svg width="82" height="82" viewBox="0 0 82 82" fill="none" xmlns="http://www.w3.org/2000/svg">
<g filter="url(#filter0_d_1829_13354)">
<circle cx="38" cy="35" r="20" fill="white"/>
<circle cx="38" cy="35" r="12.5" fill="white"/>
<path d="M37.9999 55C35.3735 55 32.7728 54.4827 30.3463 53.4776C27.9198 52.4725 25.715 50.9993 23.8578 49.1421C22.0006 47.285 20.5274 45.0802 19.5223 42.6537C18.5173 40.2272 17.9999 37.6264 17.9999 35C17.9999 32.3736 18.5173 29.7728 19.5223 27.3463C20.5274 24.9198 22.0006 22.715 23.8578 20.8579C25.715 19.0007 27.9198 17.5275 30.3463 16.5224C32.7728 15.5173 35.3735 15 37.9999 15L37.9999 20C36.0301 20 34.0796 20.388 32.2597 21.1418C30.4398 21.8956 28.7862 23.0005 27.3933 24.3934C26.0005 25.7863 24.8956 27.4399 24.1417 29.2597C23.3879 31.0796 22.9999 33.0302 22.9999 35C22.9999 36.9698 23.3879 38.9204 24.1417 40.7402C24.8956 42.5601 26.0005 44.2137 27.3933 45.6066C28.7862 46.9995 30.4398 48.1044 32.2597 48.8582C34.0796 49.612 36.0301 50 37.9999 50L37.9999 55Z" fill="#19B775" stroke="white"/>
<path d="M37.9999 15C43.3043 15 48.3913 17.1071 52.1421 20.8579C55.8928 24.6086 57.9999 29.6957 57.9999 35C57.9999 40.3043 55.8928 45.3914 52.1421 49.1421C48.3913 52.8929 43.3043 55 37.9999 55L37.9999 50C41.9782 50 45.7935 48.4196 48.6065 45.6066C51.4196 42.7936 52.9999 38.9782 52.9999 35C52.9999 31.0218 51.4196 27.2064 48.6065 24.3934C45.7935 21.5804 41.9782 20 37.9999 20L37.9999 15Z" fill="#19B775" stroke="white"/>
<path d="M33.4268 39.843V43.5413H32.603V39.843H33.4268ZM35.8398 39.843L34.1753 42.0681H33.2354L33.126 41.323H33.813L34.811 39.843H35.8398ZM34.876 43.5413L33.7617 41.928L34.4111 41.4597L35.9595 43.5413H34.876ZM38.3555 41.2922H37.0874L37.0806 40.6667H38.188C38.3748 40.6667 38.5332 40.6394 38.6631 40.5847C38.7952 40.5278 38.8955 40.4469 38.9639 40.342C39.0322 40.2349 39.0664 40.1062 39.0664 39.9558C39.0664 39.7895 39.0345 39.6539 38.9707 39.5491C38.9069 39.4443 38.8089 39.3679 38.6768 39.3201C38.5469 39.2722 38.3805 39.2483 38.1777 39.2483H37.3472V43.5413H36.4893V38.5647H38.1777C38.4512 38.5647 38.695 38.5909 38.9092 38.6433C39.1257 38.6957 39.3091 38.7778 39.4595 38.8894C39.6121 38.9988 39.7272 39.1378 39.8047 39.3064C39.8844 39.475 39.9243 39.6755 39.9243 39.908C39.9243 40.113 39.8753 40.301 39.7773 40.4719C39.6794 40.6405 39.5347 40.7784 39.3433 40.8855C39.1519 40.9926 38.9137 41.0564 38.6289 41.0769L38.3555 41.2922ZM38.3179 43.5413H36.8174L37.2036 42.8611H38.3179C38.5116 42.8611 38.6733 42.8292 38.8032 42.7654C38.9331 42.6993 39.0299 42.6093 39.0938 42.4954C39.1598 42.3792 39.1929 42.2436 39.1929 42.0886C39.1929 41.9268 39.1644 41.7867 39.1074 41.6682C39.0505 41.5474 38.9604 41.4552 38.8374 41.3914C38.7144 41.3253 38.5537 41.2922 38.3555 41.2922H37.3916L37.3984 40.6667H38.6528L38.8477 40.9026C39.1211 40.9117 39.3455 40.9721 39.521 41.0837C39.6987 41.1954 39.8309 41.3401 39.9175 41.5178C40.0041 41.6956 40.0474 41.887 40.0474 42.092C40.0474 42.4088 39.9779 42.6742 39.8389 42.8884C39.7021 43.1026 39.505 43.2655 39.2476 43.3772C38.9901 43.4866 38.6802 43.5413 38.3179 43.5413ZM42.5459 39.843V43.5413H41.7188V39.843H42.5459ZM43.7593 39.843V40.4924H40.5259V39.843H43.7593Z" fill="black"/>
<path d="M37.4668 34.6875V36H30.7949V34.8721L34.0352 31.3379C34.3906 30.9368 34.6709 30.5905 34.876 30.2988C35.0811 30.0072 35.2246 29.7451 35.3066 29.5127C35.3932 29.2757 35.4365 29.0456 35.4365 28.8223C35.4365 28.5078 35.3773 28.2321 35.2588 27.9951C35.1449 27.7536 34.9762 27.5645 34.7529 27.4277C34.5296 27.2865 34.2585 27.2158 33.9395 27.2158C33.5703 27.2158 33.2604 27.2956 33.0098 27.4551C32.7591 27.6146 32.57 27.8356 32.4424 28.1182C32.3148 28.3962 32.251 28.7152 32.251 29.0752H30.6035C30.6035 28.4964 30.7357 27.9678 31 27.4893C31.2643 27.0062 31.6471 26.6234 32.1484 26.3408C32.6497 26.0537 33.2536 25.9102 33.96 25.9102C34.6253 25.9102 35.1904 26.0218 35.6553 26.2451C36.1201 26.4684 36.4733 26.7852 36.7148 27.1953C36.9609 27.6055 37.084 28.0908 37.084 28.6514C37.084 28.9613 37.0339 29.2689 36.9336 29.5742C36.8333 29.8796 36.6898 30.1849 36.5029 30.4902C36.3206 30.791 36.1042 31.0941 35.8535 31.3994C35.6029 31.7002 35.3271 32.0055 35.0264 32.3154L32.873 34.6875H37.4668ZM45.2393 30.1895V31.8164C45.2393 32.5957 45.1618 33.2611 45.0068 33.8125C44.8564 34.3594 44.6377 34.8037 44.3506 35.1455C44.0635 35.4873 43.7194 35.738 43.3184 35.8975C42.9219 36.057 42.4775 36.1367 41.9854 36.1367C41.5934 36.1367 41.2288 36.0866 40.8916 35.9863C40.5589 35.8861 40.2581 35.7288 39.9893 35.5146C39.7204 35.3005 39.4902 35.0247 39.2988 34.6875C39.112 34.3457 38.9661 33.9378 38.8613 33.4639C38.7611 32.9899 38.7109 32.4408 38.7109 31.8164V30.1895C38.7109 29.4056 38.7884 28.7448 38.9434 28.207C39.0983 27.6647 39.3193 27.2249 39.6064 26.8877C39.8936 26.5459 40.2354 26.2975 40.6318 26.1426C41.0329 25.9876 41.4795 25.9102 41.9717 25.9102C42.3682 25.9102 42.7327 25.9603 43.0654 26.0605C43.4027 26.1562 43.7035 26.3089 43.9678 26.5186C44.2367 26.7282 44.4645 27.0016 44.6514 27.3389C44.8428 27.6715 44.9886 28.0749 45.0889 28.5488C45.1891 29.0182 45.2393 29.5651 45.2393 30.1895ZM43.5918 32.0488V29.9434C43.5918 29.5469 43.569 29.1982 43.5234 28.8975C43.4779 28.5921 43.4095 28.3346 43.3184 28.125C43.2318 27.9108 43.1224 27.7376 42.9902 27.6055C42.8581 27.4688 42.7077 27.3708 42.5391 27.3115C42.3704 27.2477 42.1813 27.2158 41.9717 27.2158C41.7165 27.2158 41.4886 27.266 41.2881 27.3662C41.0876 27.4619 40.9189 27.6169 40.7822 27.8311C40.6455 28.0452 40.5407 28.3278 40.4678 28.6787C40.3994 29.0251 40.3652 29.4466 40.3652 29.9434V32.0488C40.3652 32.4499 40.388 32.8031 40.4336 33.1084C40.4792 33.4137 40.5475 33.6758 40.6387 33.8945C40.7298 34.1087 40.8392 34.2865 40.9668 34.4277C41.099 34.5645 41.2493 34.6647 41.418 34.7285C41.5911 34.7923 41.7803 34.8242 41.9854 34.8242C42.2451 34.8242 42.4753 34.7741 42.6758 34.6738C42.8763 34.5736 43.0449 34.4141 43.1816 34.1953C43.3184 33.972 43.4209 33.6826 43.4893 33.3271C43.5576 32.9717 43.5918 32.5456 43.5918 32.0488Z" fill="black"/>
</g>
<defs>
<filter id="filter0_d_1829_13354" x="0.499939" y="0.5" width="81" height="81" filterUnits="userSpaceOnUse" color-interpolation-filters="sRGB">
<feFlood flood-opacity="0" result="BackgroundImageFix"/>
<feColorMatrix in="SourceAlpha" type="matrix" values="0 0 0 0 0 0 0 0 0 0 0 0 0 0 0 0 0 0 127 0" result="hardAlpha"/>
<feOffset dx="3" dy="6"/>
<feGaussianBlur stdDeviation="10"/>
<feComposite in2="hardAlpha" operator="out"/>
<feColorMatrix type="matrix" values="0 0 0 0 0 0 0 0 0 0 0 0 0 0 0 0 0 0 0.25 0"/>
<feBlend mode="normal" in2="BackgroundImageFix" result="effect1_dropShadow_1829_13354"/>
<feBlend mode="normal" in="SourceGraphic" in2="effect1_dropShadow_1829_13354" result="shape"/>
</filter>
</defs>
</svg>
